<?xml version="1.0" encoding="UTF-8" standalone="no"?>
<svg
   xmlns:dc="http://purl.org/dc/elements/1.1/"
   xmlns:cc="http://creativecommons.org/ns#"
   xmlns:rdf="http://www.w3.org/1999/02/22-rdf-syntax-ns#"
   xmlns:svg="http://www.w3.org/2000/svg"
   xmlns="http://www.w3.org/2000/svg"
   xmlns:sodipodi="http://sodipodi.sourceforge.net/DTD/sodipodi-0.dtd"
   xmlns:inkscape="http://www.inkscape.org/namespaces/inkscape"
   version="1.1"
   width="45"
   height="45"
   id="svg4"
   sodipodi:docname="black_pawn.svg"
   inkscape:version="0.92.4 5da689c313, 2019-01-14">
  <metadata
     id="metadata10">
    <rdf:RDF>
      <cc:Work
         rdf:about="">
        <dc:format>image/svg+xml</dc:format>
        <dc:type
           rdf:resource="http://purl.org/dc/dcmitype/StillImage" />
      </cc:Work>
    </rdf:RDF>
  </metadata>
  <defs
     id="defs8" />
  <sodipodi:namedview
     pagecolor="#ffffff"
     bordercolor="#666666"
     borderopacity="1"
     objecttolerance="10"
     gridtolerance="10"
     guidetolerance="10"
     inkscape:pageopacity="0"
     inkscape:pageshadow="2"
     inkscape:window-width="1812"
     inkscape:window-height="851"
     id="namedview6"
     showgrid="false"
     inkscape:zoom="10.488889"
     inkscape:cx="0.23381423"
     inkscape:cy="19.069159"
     inkscape:window-x="0"
     inkscape:window-y="28"
     inkscape:window-maximized="0"
     inkscape:current-layer="svg4" />
  <path
     d="m 22,8.5 c -2.21,0 -4,1.79 -4,4 0,0.89 0.29,1.71 0.78,2.38 -1.95,1.12 -3.28,3.21 -3.28,5.62 0,2.03 0.94,3.84 2.41,5.03 -3,1.06 -7.41,5.55 -7.41,13.47 h 23 c 0,-7.92 -4.41,-12.41 -7.41,-13.47 1.47,-1.19 2.41,-3 2.41,-5.03 0,-2.41 -1.33,-4.5 -3.28,-5.62 0.49,-0.67 0.78,-1.49 0.78,-2.38 0,-2.21 -1.79,-4 -4,-4 z"
     style="opacity:1;fill:#000000;fill-opacity:1;fill-rule:nonzero;stroke:#000000;stroke-width:1.5;stroke-linecap:round;stroke-linejoin:miter;stroke-miterlimit:4;stroke-dasharray:none;stroke-opacity:1"
     id="path2"
     inkscape:connector-curvature="0" />
</svg>
