<?xml version="1.0" encoding="UTF-8" standalone="no"?>
<svg
   xmlns:dc="http://purl.org/dc/elements/1.1/"
   xmlns:cc="http://creativecommons.org/ns#"
   xmlns:rdf="http://www.w3.org/1999/02/22-rdf-syntax-ns#"
   xmlns:svg="http://www.w3.org/2000/svg"
   xmlns="http://www.w3.org/2000/svg"
   xmlns:sodipodi="http://sodipodi.sourceforge.net/DTD/sodipodi-0.dtd"
   xmlns:inkscape="http://www.inkscape.org/namespaces/inkscape"
   inkscape:version="1.0 (4035a4fb49, 2020-05-01)"
   sodipodi:docname="white_knight.svg"
   id="svg12"
   height="45"
   width="45"
   version="1.1">
  <metadata
     id="metadata18">
    <rdf:RDF>
      <cc:Work
         rdf:about="">
        <dc:format>image/svg+xml</dc:format>
        <dc:type
           rdf:resource="http://purl.org/dc/dcmitype/StillImage" />
      </cc:Work>
    </rdf:RDF>
  </metadata>
  <defs
     id="defs16" />
  <sodipodi:namedview
     inkscape:current-layer="svg12"
     inkscape:window-maximized="0"
     inkscape:window-y="316"
     inkscape:window-x="1670"
     inkscape:cy="22.5"
     inkscape:cx="21.166667"
     inkscape:zoom="18"
     showgrid="false"
     id="namedview14"
     inkscape:window-height="967"
     inkscape:window-width="1513"
     inkscape:pageshadow="2"
     inkscape:pageopacity="0"
     guidetolerance="10"
     gridtolerance="10"
     objecttolerance="10"
     borderopacity="1"
     bordercolor="#666666"
     pagecolor="#ffffff" />
  <g
     transform="translate(-0.5)"
     id="g10"
     style="opacity:1;fill:none;fill-opacity:1;fill-rule:evenodd;stroke:#000000;stroke-width:1.5;stroke-linecap:round;stroke-linejoin:round;stroke-miterlimit:4;stroke-dasharray:none;stroke-opacity:1">
    <path
       id="path2"
       style="fill:#ffffff;stroke:#000000"
       d="m 22,10 c 10.5,1 16.5,8 16,29 H 15 c 0,-9 10,-6.5 8,-21" />
    <path
       id="path4"
       style="fill:#ffffff;stroke:#000000"
       d="m 24,18 c 0.38,2.91 -5.55,7.37 -8,9 -3,2 -2.82,4.34 -5,4 -1.042,-0.94 1.41,-3.04 0,-3 -1,0 0.19,1.23 -1,2 -1,0 -4.003,1 -4,-4 0,-2 6,-12 6,-12 0,0 1.89,-1.9 2,-3.5 -0.73,-0.994 -0.5,-2 -0.5,-3 1,-1 3,2.5 3,2.5 h 2 c 0,0 0.78,-1.992 2.5,-3 1,0 1,3 1,3" />
    <path
       id="path6"
       style="fill:#000000;stroke:#000000"
       d="m 9.5,25.5 a 0.5,0.5 0 1 1 -1,0 0.5,0.5 0 1 1 1,0 z" />
    <path
       id="path8"
       style="fill:#000000;stroke:#000000"
       transform="matrix(0.866,0.5,-0.5,0.866,9.693,-5.173)"
       d="m 15,15.5 a 0.5,1.5 0 1 1 -1,0 0.5,1.5 0 1 1 1,0 z" />
  </g>
</svg>
